<svg width="221" height="50" viewBox="0 0 221 50" fill="none" xmlns="http://www.w3.org/2000/svg">
<rect width="221" height="50" rx="10" fill="white"/>
<path d="M32.48 32.16C31.0667 32.16 29.7933 31.8533 28.66 31.24C27.5267 30.6133 26.6333 29.7533 25.98 28.66C25.34 27.5667 25.02 26.3467 25.02 25C25.02 23.6533 25.34 22.4333 25.98 21.34C26.6333 20.2467 27.5267 19.3933 28.66 18.78C29.7933 18.1533 31.0667 17.84 32.48 17.84C33.88 17.84 35.1467 18.1533 36.28 18.78C37.4133 19.3933 38.3 20.2467 38.94 21.34C39.58 22.42 39.9 23.64 39.9 25C39.9 26.36 39.58 27.5867 38.94 28.68C38.3 29.76 37.4133 30.6133 36.28 31.24C35.1467 31.8533 33.88 32.16 32.48 32.16ZM32.48 30.38C33.5067 30.38 34.4267 30.1467 35.24 29.68C36.0667 29.2133 36.7133 28.5733 37.18 27.76C37.66 26.9333 37.9 26.0133 37.9 25C37.9 23.9867 37.66 23.0733 37.18 22.26C36.7133 21.4333 36.0667 20.7867 35.24 20.32C34.4267 19.8533 33.5067 19.62 32.48 19.62C31.4533 19.62 30.52 19.8533 29.68 20.32C28.8533 20.7867 28.2 21.4333 27.72 22.26C27.2533 23.0733 27.02 23.9867 27.02 25C27.02 26.0133 27.2533 26.9333 27.72 27.76C28.2 28.5733 28.8533 29.2133 29.68 29.68C30.52 30.1467 31.4533 30.38 32.48 30.38ZM47.4331 32.12C46.3531 32.12 45.3865 31.8867 44.5331 31.42C43.6931 30.9533 43.0331 30.3133 42.5531 29.5C42.0731 28.6733 41.8331 27.74 41.8331 26.7C41.8331 25.66 42.0731 24.7333 42.5531 23.92C43.0331 23.0933 43.6931 22.4533 44.5331 22C45.3865 21.5333 46.3531 21.3 47.4331 21.3C48.3931 21.3 49.2465 21.4933 49.9931 21.88C50.7531 22.2667 51.3398 22.8267 51.7531 23.56L50.2931 24.5C49.9598 23.9933 49.5465 23.6133 49.0531 23.36C48.5598 23.1067 48.0131 22.98 47.4131 22.98C46.7198 22.98 46.0931 23.1333 45.5331 23.44C44.9865 23.7467 44.5531 24.1867 44.2331 24.76C43.9265 25.32 43.7731 25.9667 43.7731 26.7C43.7731 27.4467 43.9265 28.1067 44.2331 28.68C44.5531 29.24 44.9865 29.6733 45.5331 29.98C46.0931 30.2867 46.7198 30.44 47.4131 30.44C48.0131 30.44 48.5598 30.3133 49.0531 30.06C49.5465 29.8067 49.9598 29.4267 50.2931 28.92L51.7531 29.84C51.3398 30.5733 50.7531 31.14 49.9931 31.54C49.2465 31.9267 48.3931 32.12 47.4331 32.12ZM62.0022 23.08H58.1222V32H56.2022V23.08H52.3222V21.4H62.0022V23.08ZM67.7455 21.3C69.2121 21.3 70.3321 21.66 71.1055 22.38C71.8921 23.1 72.2855 24.1733 72.2855 25.6V32H70.4655V30.6C70.1455 31.0933 69.6855 31.4733 69.0855 31.74C68.4988 31.9933 67.7988 32.12 66.9855 32.12C65.7988 32.12 64.8455 31.8333 64.1255 31.26C63.4188 30.6867 63.0655 29.9333 63.0655 29C63.0655 28.0667 63.4055 27.32 64.0855 26.76C64.7655 26.1867 65.8455 25.9 67.3255 25.9H70.3655V25.52C70.3655 24.6933 70.1255 24.06 69.6455 23.62C69.1655 23.18 68.4588 22.96 67.5255 22.96C66.8988 22.96 66.2855 23.0667 65.6855 23.28C65.0855 23.48 64.5788 23.7533 64.1655 24.1L63.3655 22.66C63.9121 22.22 64.5655 21.8867 65.3255 21.66C66.0855 21.42 66.8921 21.3 67.7455 21.3ZM67.3055 30.64C68.0388 30.64 68.6721 30.48 69.2055 30.16C69.7388 29.8267 70.1255 29.36 70.3655 28.76V27.28H67.4055C65.7788 27.28 64.9655 27.8267 64.9655 28.92C64.9655 29.4533 65.1721 29.8733 65.5855 30.18C65.9988 30.4867 66.5721 30.64 67.3055 30.64ZM82.9628 26.5C84.3361 26.8467 85.0228 27.7067 85.0228 29.08C85.0228 30.0133 84.6695 30.7333 83.9628 31.24C83.2695 31.7467 82.2295 32 80.8428 32H75.7428V21.4H80.6628C81.9161 21.4 82.8961 21.64 83.6028 22.12C84.3095 22.5867 84.6628 23.2533 84.6628 24.12C84.6628 24.68 84.5095 25.1667 84.2028 25.58C83.9095 25.98 83.4961 26.2867 82.9628 26.5ZM77.6228 25.96H80.5028C81.2361 25.96 81.7895 25.8267 82.1628 25.56C82.5495 25.2933 82.7428 24.9067 82.7428 24.4C82.7428 23.3867 81.9961 22.88 80.5028 22.88H77.6228V25.96ZM80.7028 30.52C81.5028 30.52 82.1028 30.3933 82.5028 30.14C82.9028 29.8867 83.1028 29.4933 83.1028 28.96C83.1028 28.4133 82.9161 28.0067 82.5428 27.74C82.1828 27.4733 81.6095 27.34 80.8228 27.34H77.6228V30.52H80.7028ZM88.028 21.4H89.948V29.12L96.448 21.4H98.188V32H96.268V24.28L89.788 32H88.028V21.4ZM109.815 23.08H105.935V32H104.015V23.08H100.135V21.4H109.815V23.08ZM116.678 25C118.025 25.0133 119.051 25.32 119.758 25.92C120.465 26.52 120.818 27.3667 120.818 28.46C120.818 29.6067 120.431 30.4933 119.658 31.12C118.898 31.7333 117.805 32.0333 116.378 32.02L111.778 32V21.4H113.698V24.98L116.678 25ZM116.218 30.56C117.085 30.5733 117.738 30.4 118.178 30.04C118.631 29.68 118.858 29.1467 118.858 28.44C118.858 27.7467 118.638 27.24 118.198 26.92C117.771 26.6 117.111 26.4333 116.218 26.42L113.698 26.38V30.54L116.218 30.56ZM134.393 26.48C135.1 26.6667 135.646 26.9667 136.033 27.38C136.42 27.7933 136.613 28.3067 136.613 28.92C136.613 29.5467 136.4 30.1067 135.973 30.6C135.546 31.08 134.953 31.46 134.193 31.74C133.446 32.0067 132.606 32.14 131.673 32.14C130.886 32.14 130.113 32.04 129.353 31.84C128.606 31.6267 127.94 31.3267 127.353 30.94L127.933 29.48C128.44 29.8 129.02 30.0533 129.673 30.24C130.326 30.4133 130.986 30.5 131.653 30.5C132.56 30.5 133.28 30.3467 133.813 30.04C134.36 29.72 134.633 29.2933 134.633 28.76C134.633 28.2667 134.413 27.8867 133.973 27.62C133.546 27.3533 132.94 27.22 132.153 27.22H130.213V25.84H132.013C132.733 25.84 133.3 25.7133 133.713 25.46C134.126 25.2067 134.333 24.86 134.333 24.42C134.333 23.94 134.086 23.5667 133.593 23.3C133.113 23.0333 132.46 22.9 131.633 22.9C130.58 22.9 129.466 23.1733 128.293 23.72L127.773 22.24C129.066 21.5867 130.42 21.26 131.833 21.26C132.686 21.26 133.453 21.38 134.133 21.62C134.813 21.86 135.346 22.2 135.733 22.64C136.12 23.08 136.313 23.58 136.313 24.14C136.313 24.66 136.14 25.1267 135.793 25.54C135.446 25.9533 134.98 26.2667 134.393 26.48ZM143.312 21.3C144.779 21.3 145.899 21.66 146.672 22.38C147.459 23.1 147.852 24.1733 147.852 25.6V32H146.032V30.6C145.712 31.0933 145.252 31.4733 144.652 31.74C144.065 31.9933 143.365 32.12 142.552 32.12C141.365 32.12 140.412 31.8333 139.692 31.26C138.985 30.6867 138.632 29.9333 138.632 29C138.632 28.0667 138.972 27.32 139.652 26.76C140.332 26.1867 141.412 25.9 142.892 25.9H145.932V25.52C145.932 24.6933 145.692 24.06 145.212 23.62C144.732 23.18 144.025 22.96 143.092 22.96C142.465 22.96 141.852 23.0667 141.252 23.28C140.652 23.48 140.145 23.7533 139.732 24.1L138.932 22.66C139.479 22.22 140.132 21.8867 140.892 21.66C141.652 21.42 142.459 21.3 143.312 21.3ZM142.872 30.64C143.605 30.64 144.239 30.48 144.772 30.16C145.305 29.8267 145.692 29.36 145.932 28.76V27.28H142.972C141.345 27.28 140.532 27.8267 140.532 28.92C140.532 29.4533 140.739 29.8733 141.152 30.18C141.565 30.4867 142.139 30.64 142.872 30.64ZM159.809 21.4V32H158.089V28.64H155.009H154.789L152.469 32H150.409L152.989 28.38C152.189 28.14 151.576 27.7467 151.149 27.2C150.723 26.64 150.509 25.9467 150.509 25.12C150.509 23.9067 150.923 22.9867 151.749 22.36C152.576 21.72 153.716 21.4 155.169 21.4H159.809ZM152.469 25.18C152.469 25.8867 152.689 26.4133 153.129 26.76C153.583 27.0933 154.256 27.26 155.149 27.26H158.089V23.08H155.229C153.389 23.08 152.469 23.78 152.469 25.18ZM170.775 26.5C172.149 26.8467 172.835 27.7067 172.835 29.08C172.835 30.0133 172.482 30.7333 171.775 31.24C171.082 31.7467 170.042 32 168.655 32H163.555V21.4H168.475C169.729 21.4 170.709 21.64 171.415 22.12C172.122 22.5867 172.475 23.2533 172.475 24.12C172.475 24.68 172.322 25.1667 172.015 25.58C171.722 25.98 171.309 26.2867 170.775 26.5ZM165.435 25.96H168.315C169.049 25.96 169.602 25.8267 169.975 25.56C170.362 25.2933 170.555 24.9067 170.555 24.4C170.555 23.3867 169.809 22.88 168.315 22.88H165.435V25.96ZM168.515 30.52C169.315 30.52 169.915 30.3933 170.315 30.14C170.715 29.8867 170.915 29.4933 170.915 28.96C170.915 28.4133 170.729 28.0067 170.355 27.74C169.995 27.4733 169.422 27.34 168.635 27.34H165.435V30.52H168.515ZM179.96 27.52H177.76V32H175.84V21.4H177.76V25.88H180L183.44 21.4H185.5L181.48 26.5L185.78 32H183.52L179.96 27.52ZM196.648 21.4L191.508 33.06C191.055 34.14 190.521 34.9 189.908 35.34C189.308 35.78 188.581 36 187.728 36C187.208 36 186.701 35.9133 186.208 35.74C185.728 35.58 185.328 35.34 185.008 35.02L185.828 33.58C186.375 34.1 187.008 34.36 187.728 34.36C188.195 34.36 188.581 34.2333 188.888 33.98C189.208 33.74 189.495 33.32 189.748 32.72L190.088 31.98L185.408 21.4H187.408L191.108 29.88L194.768 21.4H196.648Z" fill="black"/>
</svg>
