<svg width="160" height="50" viewBox="0 0 160 50" fill="none" xmlns="http://www.w3.org/2000/svg">
<rect width="160" height="50" rx="10" fill="white"/>
<path d="M57.9 24.74C58.8467 24.9667 59.56 25.3733 60.04 25.96C60.5333 26.5333 60.78 27.2733 60.78 28.18C60.78 29.3933 60.3333 30.3333 59.44 31C58.56 31.6667 57.2733 32 55.58 32H49.18V18H55.2C56.7333 18 57.9267 18.3133 58.78 18.94C59.6467 19.5533 60.08 20.44 60.08 21.6C60.08 22.36 59.8867 23.0067 59.5 23.54C59.1267 24.0733 58.5933 24.4733 57.9 24.74ZM51.16 24.16H55.06C56.0333 24.16 56.7733 23.9667 57.28 23.58C57.8 23.1933 58.06 22.6267 58.06 21.88C58.06 21.1333 57.8 20.5667 57.28 20.18C56.76 19.78 56.02 19.58 55.06 19.58H51.16V24.16ZM55.54 30.42C57.6867 30.42 58.76 29.62 58.76 28.02C58.76 27.22 58.4867 26.6333 57.94 26.26C57.4067 25.8733 56.6067 25.68 55.54 25.68H51.16V30.42H55.54ZM68.3414 32.12C67.2881 32.12 66.3414 31.8867 65.5014 31.42C64.6614 30.9533 64.0014 30.3133 63.5214 29.5C63.0547 28.6733 62.8214 27.74 62.8214 26.7C62.8214 25.66 63.0547 24.7333 63.5214 23.92C64.0014 23.0933 64.6614 22.4533 65.5014 22C66.3414 21.5333 67.2881 21.3 68.3414 21.3C69.3947 21.3 70.3347 21.5333 71.1614 22C72.0014 22.4533 72.6547 23.0933 73.1214 23.92C73.6014 24.7333 73.8414 25.66 73.8414 26.7C73.8414 27.74 73.6014 28.6733 73.1214 29.5C72.6547 30.3133 72.0014 30.9533 71.1614 31.42C70.3347 31.8867 69.3947 32.12 68.3414 32.12ZM68.3414 30.44C69.0214 30.44 69.6281 30.2867 70.1614 29.98C70.7081 29.66 71.1347 29.22 71.4414 28.66C71.7481 28.0867 71.9014 27.4333 71.9014 26.7C71.9014 25.9667 71.7481 25.32 71.4414 24.76C71.1347 24.1867 70.7081 23.7467 70.1614 23.44C69.6281 23.1333 69.0214 22.98 68.3414 22.98C67.6614 22.98 67.0481 23.1333 66.5014 23.44C65.9681 23.7467 65.5414 24.1867 65.2214 24.76C64.9147 25.32 64.7614 25.9667 64.7614 26.7C64.7614 27.4333 64.9147 28.0867 65.2214 28.66C65.5414 29.22 65.9681 29.66 66.5014 29.98C67.0481 30.2867 67.6614 30.44 68.3414 30.44ZM76.6139 21.4H78.5339V29.12L85.0339 21.4H86.7739V32H84.8539V24.28L78.3739 32H76.6139V21.4ZM81.5739 20.02C80.5872 20.02 79.8206 19.7867 79.2739 19.32C78.7272 18.84 78.4472 18.1533 78.4339 17.26H79.7339C79.7472 17.7533 79.9139 18.1533 80.2339 18.46C80.5672 18.7533 81.0072 18.9 81.5539 18.9C82.1006 18.9 82.5406 18.7533 82.8739 18.46C83.2072 18.1533 83.3806 17.7533 83.3939 17.26H84.7339C84.7206 18.1533 84.4339 18.84 83.8739 19.32C83.3139 19.7867 82.5472 20.02 81.5739 20.02ZM98.4006 23.08H94.5206V32H92.6006V23.08H88.7206V21.4H98.4006V23.08ZM100.364 21.4H102.284V29.12L108.784 21.4H110.524V32H108.604V24.28L102.124 32H100.364V21.4Z" fill="black"/>
</svg>
