<svg width="227" height="227" viewBox="0 0 227 227" fill="none" xmlns="http://www.w3.org/2000/svg">
<rect y="113.137" width="160" height="160" rx="40" transform="rotate(-45 0 113.137)" fill="#FCE55A" fill-opacity="0.6"/>
<circle cx="113.432" cy="106.209" r="9.70937" stroke="#353031" stroke-width="3"/>
<mask id="path-3-inside-1" fill="white">
<path fill-rule="evenodd" clip-rule="evenodd" d="M102.384 124.902H124.478C128.612 124.902 132.158 127.417 133.67 131H136.863C135.214 125.728 130.293 121.902 124.478 121.902H102.384C96.5695 121.902 91.6481 125.728 90 131H93.1923C94.7048 127.417 98.2509 124.902 102.384 124.902Z"/>
</mask>
<path fill-rule="evenodd" clip-rule="evenodd" d="M102.384 124.902H124.478C128.612 124.902 132.158 127.417 133.67 131H136.863C135.214 125.728 130.293 121.902 124.478 121.902H102.384C96.5695 121.902 91.6481 125.728 90 131H93.1923C94.7048 127.417 98.2509 124.902 102.384 124.902Z" fill="#353031"/>
<path d="M133.67 131L130.906 132.167L131.68 134H133.67V131ZM136.863 131V134H140.944L139.726 130.105L136.863 131ZM90 131L87.1367 130.105L85.9189 134H90V131ZM93.1923 131V134H95.1822L95.9561 132.167L93.1923 131ZM124.478 121.902H102.384V127.902H124.478V121.902ZM136.434 129.833C134.469 125.179 129.86 121.902 124.478 121.902V127.902C127.364 127.902 129.846 129.656 130.906 132.167L136.434 129.833ZM133.67 134H136.863V128H133.67V134ZM139.726 130.105C137.697 123.617 131.642 118.902 124.478 118.902V124.902C128.944 124.902 132.731 127.84 133.999 131.895L139.726 130.105ZM124.478 118.902H102.384V124.902H124.478V118.902ZM102.384 118.902C95.2203 118.902 89.1651 123.617 87.1367 130.105L92.8633 131.895C94.1312 127.84 97.9187 124.902 102.384 124.902V118.902ZM90 134H93.1923V128H90V134ZM102.384 121.902C97.0029 121.902 92.3934 125.179 90.4284 129.833L95.9561 132.167C97.0161 129.656 99.499 127.902 102.384 127.902V121.902Z" fill="#353031" mask="url(#path-3-inside-1)"/>
</svg>
