<svg width="22" height="15" viewBox="0 0 22 15" fill="none" xmlns="http://www.w3.org/2000/svg">
<path fill-rule="evenodd" clip-rule="evenodd" d="M10.9999 2.03551C8.00153 2.03551 4.85045 3.75485 2.27867 7.49979C4.85045 11.2447 8.00153 12.9641 10.9999 12.9641C13.9983 12.9641 17.1495 11.2447 19.7211 7.49979C17.1495 3.75484 13.9983 2.03551 10.9999 2.03551ZM10.9999 14.8926C6.98702 14.8926 3.14021 12.489 0.272217 8.02924V6.97035C3.14021 2.51057 6.98702 0.106934 10.9999 0.106934C15.0128 0.106934 18.8596 2.51056 21.7277 6.97034C21.8338 7.12802 21.8899 7.31266 21.89 7.49979C21.8899 7.68692 21.8338 7.87157 21.7277 8.02925C18.8596 12.489 15.0128 14.8926 10.9999 14.8926ZM10.9999 11.7855C13.4299 11.7855 15.3999 9.86672 15.3999 7.49978C15.3999 5.13285 13.4299 3.21407 10.9999 3.21407C8.56985 3.21407 6.5999 5.13285 6.5999 7.49978C6.5999 9.86672 8.56985 11.7855 10.9999 11.7855Z" fill="#3B3E3C"/>
</svg>
