<svg width="60" height="60" viewBox="0 0 60 60" fill="none" xmlns="http://www.w3.org/2000/svg">
<circle cx="30" cy="30" r="29" stroke="#FFCD4E" stroke-width="2"/>
<path d="M46.5214 27.198H30.1795V33.9147H39.5151C39.1126 36.0858 37.8914 37.9222 36.0505 39.1525C34.4945 40.1928 32.5089 40.8079 30.175 40.8079C25.6564 40.8079 21.8344 37.7548 20.4685 33.6524C20.1247 32.6121 19.9257 31.4994 19.9257 30.3551C19.9257 29.2107 20.1247 28.098 20.4685 27.0577C21.839 22.9598 25.661 19.9067 30.1795 19.9067C32.726 19.9067 35.0102 20.7842 36.8103 22.503L41.7857 17.5231C38.7779 14.7188 34.8564 13 30.1795 13C23.3994 13 17.533 16.8898 14.6789 22.5618C13.5029 24.9047 12.8335 27.5553 12.8335 30.3596C12.8335 33.1639 13.5029 35.8099 14.6789 38.1529C17.533 43.8248 23.3994 47.7146 30.1795 47.7146C34.8654 47.7146 38.7915 46.1587 41.6591 43.5082C44.9383 40.4868 46.8335 36.0361 46.8335 30.7486C46.8335 29.5183 46.7249 28.3378 46.5214 27.198Z" fill="#353031"/>
</svg>
