<svg width="60" height="60" viewBox="0 0 60 60" fill="none" xmlns="http://www.w3.org/2000/svg">
<circle cx="30" cy="30" r="29" stroke="#FFCD4E" stroke-width="2"/>
<path d="M49.0829 19.6089C49.3623 18.6807 49.0829 18 47.7614 18H43.3838C42.27 18 41.7609 18.5889 41.4815 19.2356C41.4815 19.2356 39.2558 24.6632 36.1018 28.1824C35.0838 29.2065 34.6187 29.5298 34.0637 29.5298C33.7863 29.5298 33.3831 29.2065 33.3831 28.2782V19.6089C33.3831 18.495 33.0617 18 32.1335 18H25.2547C24.56 18 24.1408 18.515 24.1408 19.0061C24.1408 20.06 25.7178 20.3036 25.8795 23.2739V29.7175C25.8795 31.1288 25.626 31.3863 25.067 31.3863C23.5839 31.3863 19.9748 25.9387 17.8329 19.7027C17.4157 18.4911 16.9946 18.002 15.8767 18.002H11.5011C10.2495 18.002 10 18.5909 10 19.2376C10 20.3994 11.4831 26.1483 16.9087 33.7517C20.5258 38.9437 25.618 41.7583 30.2571 41.7583C33.0377 41.7583 33.3811 41.1335 33.3811 40.0556V36.1311C33.3811 34.8815 33.6465 34.63 34.5269 34.63C35.1736 34.63 36.2875 34.9574 38.8845 37.4586C41.8508 40.4249 42.3418 41.7563 44.0086 41.7563H48.3842C49.6338 41.7563 50.2586 41.1315 49.8993 39.8979C49.5061 38.6703 48.0888 36.8837 46.2084 34.7698C45.1864 33.5641 43.6593 32.2666 43.1942 31.6178C42.5454 30.7814 42.7331 30.4121 43.1942 29.6696C43.1962 29.6716 48.5279 22.162 49.0829 19.6089Z" fill="#353031"/>
</svg>
