<svg width="620" height="726" viewBox="0 0 620 726" fill="none" xmlns="http://www.w3.org/2000/svg">
<path d="M3.95611 159.799C-6.29562 120.43 8.32439 78.7749 40.9316 54.4482L87.3089 19.8483C104.582 6.96177 125.556 0 147.106 0H620V630.936L252.976 722.914C199.752 736.252 145.722 704.212 131.895 651.113L3.95611 159.799Z" fill="#FCE55A"/>
<circle cx="71.2154" cy="160.431" r="5" transform="rotate(-30 71.2154 160.431)" fill="white"/>
<circle cx="50.4307" cy="172.431" r="5" transform="rotate(-30 50.4307 172.431)" fill="white"/>
<circle cx="91.9999" cy="148.431" r="5" transform="rotate(-30 91.9999 148.431)" fill="white"/>
<circle cx="112.785" cy="136.431" r="5" transform="rotate(-30 112.785 136.431)" fill="white"/>
<circle cx="133.569" cy="124.431" r="5" transform="rotate(-30 133.569 124.431)" fill="white"/>
<circle cx="145.569" cy="145.215" r="5" transform="rotate(-30 145.569 145.215)" fill="white"/>
<circle cx="157.569" cy="166" r="5" transform="rotate(-30 157.569 166)" fill="white"/>
<circle cx="169.569" cy="186.784" r="5" transform="rotate(-30 169.569 186.784)" fill="white"/>
<circle cx="181.569" cy="207.569" r="5" transform="rotate(-30 181.569 207.569)" fill="white"/>
<circle cx="124.785" cy="157.215" r="5" transform="rotate(-30 124.785 157.215)" fill="white"/>
<circle cx="136.785" cy="178" r="5" transform="rotate(-30 136.785 178)" fill="white"/>
<circle cx="148.785" cy="198.784" r="5" transform="rotate(-30 148.785 198.784)" fill="white"/>
<circle cx="160.785" cy="219.569" r="5" transform="rotate(-30 160.785 219.569)" fill="white"/>
<circle cx="104" cy="169.215" r="5" transform="rotate(-30 104 169.215)" fill="white"/>
<circle cx="116" cy="190" r="5" transform="rotate(-30 116 190)" fill="white"/>
<circle cx="128" cy="210.784" r="5" transform="rotate(-30 128 210.784)" fill="white"/>
<circle cx="140" cy="231.569" r="5" transform="rotate(-30 140 231.569)" fill="white"/>
<circle cx="83.2154" cy="181.215" r="5" transform="rotate(-30 83.2154 181.215)" fill="white"/>
<circle cx="62.4307" cy="193.215" r="5" transform="rotate(-30 62.4307 193.215)" fill="white"/>
<circle cx="95.2154" cy="202" r="5" transform="rotate(-30 95.2154 202)" fill="white"/>
<circle cx="74.4307" cy="214" r="5" transform="rotate(-30 74.4307 214)" fill="white"/>
<circle cx="107.215" cy="222.784" r="5" transform="rotate(-30 107.215 222.784)" fill="white"/>
<circle cx="119.215" cy="243.569" r="5" transform="rotate(-30 119.215 243.569)" fill="white"/>
<circle cx="86.4307" cy="234.784" r="5" transform="rotate(-30 86.4307 234.784)" fill="white"/>
<circle cx="98.4307" cy="255.569" r="5" transform="rotate(-30 98.4307 255.569)" fill="white"/>
<path d="M488.01 334.556C486.038 320.72 494.216 307.445 507.461 302.982L583.741 277.282C602.536 270.95 622 284.931 622 304.764V473.525C622 486.855 612.912 498.469 599.973 501.674L545.988 515.046C529.316 519.176 512.729 507.992 510.305 490.989L488.01 334.556Z" stroke="white" stroke-width="2"/>
<path d="M506.51 388.556C504.538 374.72 512.716 361.445 525.961 356.982L602.241 331.282C621.036 324.95 640.5 338.931 640.5 358.764V527.525C640.5 540.855 631.412 552.469 618.473 555.674L564.488 569.046C547.816 573.176 531.229 561.992 528.805 544.989L506.51 388.556Z" stroke="white" stroke-width="2"/>
<path d="M525.51 442.556C523.538 428.72 531.716 415.445 544.961 410.982L621.241 385.282C640.036 378.95 659.5 392.931 659.5 412.764V581.525C659.5 594.855 650.412 606.469 637.473 609.674L583.488 623.046C566.816 627.176 550.229 615.992 547.805 598.989L525.51 442.556Z" stroke="white" stroke-width="2"/>
<circle cx="449" cy="123" r="5" fill="white"/>
<circle cx="425" cy="123" r="5" fill="white"/>
<circle cx="473" cy="123" r="5" fill="white"/>
<circle cx="497" cy="123" r="5" fill="white"/>
<circle cx="521" cy="123" r="5" fill="white"/>
<circle cx="521" cy="147" r="5" fill="white"/>
<circle cx="521" cy="171" r="5" fill="white"/>
<circle cx="521" cy="195" r="5" fill="white"/>
<circle cx="521" cy="219" r="5" fill="white"/>
<circle cx="497" cy="147" r="5" fill="white"/>
<circle cx="497" cy="171" r="5" fill="white"/>
<circle cx="497" cy="195" r="5" fill="white"/>
<circle cx="497" cy="219" r="5" fill="white"/>
<circle cx="473" cy="147" r="5" fill="white"/>
<circle cx="473" cy="171" r="5" fill="white"/>
<circle cx="473" cy="195" r="5" fill="white"/>
<circle cx="473" cy="219" r="5" fill="white"/>
<circle cx="449" cy="147" r="5" fill="white"/>
<circle cx="425" cy="147" r="5" fill="white"/>
<circle cx="449" cy="171" r="5" fill="white"/>
<circle cx="425" cy="171" r="5" fill="white"/>
<circle cx="449" cy="195" r="5" fill="white"/>
<circle cx="449" cy="219" r="5" fill="white"/>
<circle cx="425" cy="195" r="5" fill="white"/>
<circle cx="425" cy="219" r="5" fill="white"/>
</svg>
