<svg width="227" height="227" viewBox="0 0 227 227" fill="none" xmlns="http://www.w3.org/2000/svg">
<rect y="113.137" width="160" height="160" rx="40" transform="rotate(-45 0 113.137)" fill="#FCE55A" fill-opacity="0.6"/>
<mask id="path-2-inside-1" fill="white">
<path fill-rule="evenodd" clip-rule="evenodd" d="M102.437 94H125.466C130.76 94 135.141 97.9101 135.878 103H138.903C138.147 96.2485 132.419 91 125.466 91H102.437C95.4839 91 89.7563 96.2485 89 103H92.0246C92.7621 97.9101 97.1431 94 102.437 94Z"/>
</mask>
<path fill-rule="evenodd" clip-rule="evenodd" d="M102.437 94H125.466C130.76 94 135.141 97.9101 135.878 103H138.903C138.147 96.2485 132.419 91 125.466 91H102.437C95.4839 91 89.7563 96.2485 89 103H92.0246C92.7621 97.9101 97.1431 94 102.437 94Z" fill="#353031"/>
<path d="M135.878 103L132.909 103.43L133.282 106H135.878V103ZM138.903 103V106H142.258L141.884 102.666L138.903 103ZM89 103L86.0186 102.666L85.6452 106H89V103ZM92.0246 103V106H94.6212L94.9936 103.43L92.0246 103ZM125.466 91H102.437V97H125.466V91ZM138.847 102.57C137.899 96.0259 132.272 91 125.466 91V97C129.248 97 132.383 99.7943 132.909 103.43L138.847 102.57ZM135.878 106H138.903V100H135.878V106ZM141.884 102.666C140.96 94.4135 133.964 88 125.466 88V94C130.874 94 135.334 98.0835 135.922 103.334L141.884 102.666ZM125.466 88H102.437V94H125.466V88ZM102.437 88C93.9392 88 86.9431 94.4135 86.0186 102.666L91.9814 103.334C92.5695 98.0835 97.0286 94 102.437 94V88ZM89 106H92.0246V100H89V106ZM102.437 91C95.631 91 90.0037 96.0259 89.0556 102.57L94.9936 103.43C95.5204 99.7943 98.6552 97 102.437 97V91Z" fill="#353031" mask="url(#path-2-inside-1)"/>
<path d="M114.848 102.357C114.262 101.772 113.313 101.772 112.727 102.357L103.181 111.903C102.595 112.489 102.595 113.439 103.181 114.025C103.767 114.61 104.716 114.61 105.302 114.025L113.787 105.539L122.273 114.025C122.858 114.61 123.808 114.61 124.394 114.025C124.98 113.439 124.98 112.489 124.394 111.903L114.848 102.357ZM115.287 134.877V103.418H112.287V134.877H115.287Z" fill="#353031"/>
</svg>
