<svg width="227" height="227" viewBox="0 0 227 227" fill="none" xmlns="http://www.w3.org/2000/svg">
<rect y="113.137" width="160" height="160" rx="40" transform="rotate(-45 0 113.137)" fill="#FCE55A" fill-opacity="0.6"/>
<path d="M120.915 124.483C120.915 124.898 120.75 125.297 120.456 125.591C120.162 125.885 119.764 126.05 119.348 126.05H97.4044C97.0596 126.05 96.7304 126.364 96.4483 126.567L91.1348 130.752V105.674C91.1348 105.258 91.2999 104.86 91.5939 104.566C91.8878 104.272 92.2865 104.106 92.7022 104.106H98.7523V100.972H92.7022C91.4551 100.972 90.2591 101.467 89.3772 102.349C88.4954 103.231 88 104.427 88 105.674V133.887C88.0023 134.178 88.0857 134.463 88.2407 134.709C88.3957 134.956 88.6163 135.154 88.8777 135.282C89.1296 135.397 89.4073 135.442 89.6826 135.415C89.9579 135.387 90.221 135.287 90.4451 135.125L98.5172 129.185H119.583C120.177 129.202 120.768 129.098 121.32 128.878C121.872 128.657 122.373 128.326 122.792 127.904C123.211 127.483 123.539 126.979 123.755 126.426C123.971 125.872 124.072 125.28 124.05 124.686V122.915H120.915V124.483Z" fill="#353031"/>
<path d="M133.455 90H106.809C105.562 90 104.366 90.4954 103.484 91.3772C102.602 92.2591 102.107 93.4551 102.107 94.7022V113.511C102.107 114.758 102.602 115.954 103.484 116.836C104.366 117.718 105.562 118.213 106.809 118.213H128.047L135.539 124.028C135.762 124.193 136.024 124.296 136.3 124.326C136.575 124.356 136.854 124.313 137.107 124.201C137.373 124.074 137.599 123.874 137.757 123.624C137.915 123.375 137.999 123.085 138 122.79V94.7022C138.001 93.4818 137.527 92.3089 136.679 91.4315C135.831 90.554 134.674 90.0407 133.455 90ZM135.022 119.687L129.536 115.408C129.263 115.195 128.926 115.079 128.58 115.078H106.809C106.393 115.078 105.995 114.913 105.701 114.619C105.407 114.325 105.241 113.927 105.241 113.511V94.7022C105.241 94.2865 105.407 93.8878 105.701 93.5939C105.995 93.2999 106.393 93.1348 106.809 93.1348H133.455C133.874 93.1728 134.264 93.3627 134.553 93.6687C134.842 93.9748 135.008 94.3758 135.022 94.7962V119.687Z" fill="#353031"/>
</svg>
