<svg width="66" height="70" viewBox="0 0 66 70" fill="none" xmlns="http://www.w3.org/2000/svg">
<path d="M0 14.1887C0 12.5319 1.34315 11.1887 3 11.1887H62.9834C64.6403 11.1887 65.9834 12.5319 65.9834 14.1887V55.5656C65.9834 62.7453 60.1631 68.5656 52.9834 68.5656H13C5.82031 68.5656 0 62.7453 0 55.5656V20.5125V14.1887Z" fill="#EAD036"/>
<path d="M30.8213 0C31.3735 0 31.8213 0.447715 31.8213 1V23.0983C31.8213 23.6506 31.3735 24.0983 30.8213 24.0983H28.3459C27.7936 24.0983 27.3459 23.6506 27.3459 23.0983V14.7705C27.3459 14.2182 26.8981 13.7705 26.3459 13.7705H15.8836C15.3313 13.7705 14.8836 14.2182 14.8836 14.7705V23.0983C14.8836 23.6506 14.4359 24.0983 13.8836 24.0983H11.4082C10.8559 24.0983 10.4082 23.6506 10.4082 23.0983V0.999998C10.4082 0.447714 10.8559 0 11.4082 0H13.8836C14.4359 0 14.8836 0.447715 14.8836 1V8.94916C14.8836 9.50144 15.3313 9.94916 15.8836 9.94916H26.3459C26.8981 9.94916 27.3459 9.50144 27.3459 8.94916V1C27.3459 0.447715 27.7936 0 28.3459 0H30.8213Z" fill="black"/>
<path d="M51.8134 24.0983C51.4865 24.0983 51.1802 23.9385 50.9932 23.6704L46.7087 17.5283C46.4992 17.2279 46.1418 17.0654 45.7756 17.0724C45.6723 17.0744 45.5602 17.0754 45.4392 17.0754H40.9999C40.4476 17.0754 39.9999 17.5231 39.9999 18.0754V23.0983C39.9999 23.6506 39.5522 24.0983 38.9999 24.0983H36.5245C35.9722 24.0983 35.5245 23.6506 35.5245 23.0983V0.999998C35.5245 0.447714 35.9722 0 36.5245 0H45.4392C47.5277 0 49.3409 0.344262 50.8786 1.03279C52.4392 1.72131 53.6326 2.70819 54.4589 3.99343C55.2851 5.27868 55.6982 6.8049 55.6982 8.57211C55.6982 10.3852 55.2507 11.9459 54.3556 13.2541C53.6991 14.2388 52.8215 15.035 51.7227 15.6427C51.1553 15.9565 50.9275 16.6928 51.2993 17.224L55.0099 22.5248C55.4738 23.1876 54.9997 24.0983 54.1907 24.0983H51.8134ZM51.1884 8.57211C51.1884 7.03441 50.6835 5.85245 49.6736 5.02622C48.6638 4.19999 47.1835 3.78688 45.2327 3.78688H40.9999C40.4476 3.78688 39.9999 4.23459 39.9999 4.78688V12.3918C39.9999 12.9441 40.4476 13.3918 40.9999 13.3918H45.2327C47.1835 13.3918 48.6638 12.9787 49.6736 12.1524C50.6835 11.3033 51.1884 10.1098 51.1884 8.57211Z" fill="black"/>
<path d="M0 24.2295C0 22.5726 1.34315 21.2295 3 21.2295H62.9834C64.6403 21.2295 65.9834 22.5726 65.9834 24.2295V56.9999C65.9834 64.1796 60.1631 69.9999 52.9834 69.9999H13C5.82031 69.9999 0 64.1796 0 56.9999V24.2295Z" fill="#FCE55A"/>
<path d="M2.42089 59.1073C1.99278 58.0749 1.69387 56.9754 1.54433 55.829L2.04013 55.7643C1.97043 55.23 1.93445 54.6849 1.93445 54.1311V52.7794H1.43445V50.0762H1.93445V47.3729H1.43445V44.6696H1.93445V41.9664H1.43445V39.2631H1.93445V36.5598H1.43445V33.8566H1.93445V31.1533H1.43445V28.45H1.93445V27.0984C1.93445 26.7585 2.002 26.4356 2.12395 26.1416L1.66209 25.95C1.96619 25.2167 2.55276 24.6301 3.28608 24.326L3.47761 24.7879C3.77169 24.6659 4.09455 24.5984 4.43445 24.5984H5.98112V24.0984H9.07447V24.5984H12.1678V24.0984H15.2611V24.5984H18.3545V24.0984H21.4478V24.5984H24.5412V24.0984H27.6345V24.5984H30.7279V24.0984H33.8212V24.5984H36.9145V24.0984H40.0079V24.5984H43.1012V24.0984H46.1946V24.5984H49.2879V24.0984H52.3813V24.5984H55.4746V24.0984H58.5679V24.5984H60.1146C60.4545 24.5984 60.7774 24.6659 61.0714 24.7879L61.263 24.326C61.9963 24.6301 62.5829 25.2167 62.887 25.95L62.4251 26.1416C62.5471 26.4356 62.6146 26.7585 62.6146 27.0984V28.45H63.1146V31.1533H62.6146V33.8566H63.1146V36.5598H62.6146V39.2631H63.1146V41.9664H62.6146V44.6696H63.1146V47.3729H62.6146V50.0762H63.1146V52.7794H62.6146V54.1311C62.6146 54.6849 62.5786 55.23 62.5089 55.7643L63.0047 55.829C62.8552 56.9754 62.5563 58.0749 62.1282 59.1073L61.6663 58.9158C61.245 59.9317 60.6935 60.8803 60.0323 61.7406L60.4288 62.0453C59.7367 62.9458 58.9294 63.7532 58.0288 64.4453L57.7241 64.0488C56.8638 64.7099 55.9153 65.2615 54.8993 65.6828L55.0909 66.1446C54.0585 66.5727 52.959 66.8716 51.8125 67.0212L51.7479 66.5254C51.2135 66.5951 50.6684 66.6311 50.1146 66.6311H48.6279V67.1311H45.6546V66.6311H42.6812V67.1311H39.7079V66.6311H36.7346V67.1311H33.7612V66.6311H30.7879V67.1311H27.8145V66.6311H24.8412V67.1311H21.8678V66.6311H18.8945V67.1311H15.9211V66.6311H14.4344C13.8807 66.6311 13.3355 66.5951 12.8012 66.5254L12.7365 67.0212C11.5901 66.8716 10.4906 66.5727 9.4582 66.1446L9.64973 65.6828C8.63378 65.2615 7.68522 64.7099 6.82492 64.0488L6.52025 64.4453C5.61967 63.7532 4.81231 62.9458 4.12025 62.0453L4.51671 61.7406C3.8556 60.8803 3.30405 59.9317 2.88276 58.9158L2.42089 59.1073Z" stroke="#EAD036" stroke-dasharray="3 3"/>
</svg>
