<svg width="194" height="194" viewBox="0 0 194 194" fill="none" xmlns="http://www.w3.org/2000/svg">
<g clip-path="url(#clip0)">
<path d="M68.8528 12.2843L12.2843 68.8528C-3.3367 84.4738 -3.3367 109.8 12.2843 125.421L68.8528 181.99C84.4738 197.611 109.8 197.611 125.421 181.99L181.99 125.421C197.611 109.8 197.611 84.4738 181.99 68.8528L125.421 12.2843C109.8 -3.33668 84.4738 -3.33668 68.8528 12.2843Z" fill="#FCE55A" fill-opacity="0.6"/>
<path d="M97.4317 99.9188C102.794 99.9188 107.141 95.5717 107.141 90.2094C107.141 84.8471 102.794 80.5 97.4317 80.5C92.0694 80.5 87.7223 84.8471 87.7223 90.2094C87.7223 95.5717 92.0694 99.9188 97.4317 99.9188Z" stroke="#353031" stroke-width="3"/>
<mask id="mask0" mask-type="alpha" maskUnits="userSpaceOnUse" x="74" y="105" width="47" height="10">
<path fill-rule="evenodd" clip-rule="evenodd" d="M86.3844 108.902H108.478C112.612 108.902 116.158 111.417 117.67 115H120.862C119.214 109.728 114.293 105.902 108.478 105.902H86.3844C80.5695 105.902 75.6481 109.728 74 115H77.1923C78.7048 111.417 82.2509 108.902 86.3844 108.902Z" fill="white"/>
</mask>
<g mask="url(#mask0)">
<path fill-rule="evenodd" clip-rule="evenodd" d="M86.3844 108.902H108.478C112.612 108.902 116.158 111.417 117.67 115H120.862C119.214 109.728 114.293 105.902 108.478 105.902H86.3844C80.5695 105.902 75.6481 109.728 74 115H77.1923C78.7048 111.417 82.2509 108.902 86.3844 108.902Z" fill="#353031"/>
<path d="M117.67 115L114.906 116.167L115.68 118H117.67V115ZM120.863 115V118H124.944L123.726 114.105L120.863 115ZM74 115L71.1367 114.105L69.9189 118H74V115ZM77.1923 115V118H79.1822L79.9561 116.167L77.1923 115ZM108.478 105.902H86.3844V111.902H108.478V105.902ZM120.434 113.833C118.469 109.178 113.86 105.902 108.478 105.902V111.902C111.364 111.902 113.846 113.656 114.906 116.167L120.434 113.833ZM117.67 118H120.863V112H117.67V118ZM123.726 114.105C121.697 107.617 115.642 102.902 108.478 102.902V108.902C112.944 108.902 116.731 111.84 117.999 115.895L123.726 114.105ZM108.478 102.902H86.3844V108.902H108.478V102.902ZM86.3844 102.902C79.2203 102.902 73.1651 107.617 71.1367 114.105L76.8633 115.895C78.1312 111.84 81.9187 108.902 86.3844 108.902V102.902ZM74 118H77.1923V112H74V118ZM86.3844 105.902C81.0029 105.902 76.3934 109.178 74.4284 113.833L79.9561 116.167C81.0161 113.656 83.499 111.902 86.3844 111.902V105.902Z" fill="#353031"/>
</g>
</g>
<defs>
<clipPath id="clip0">
<rect width="194" height="194" fill="white"/>
</clipPath>
</defs>
</svg>
