<svg width="194" height="194" viewBox="0 0 194 194" fill="none" xmlns="http://www.w3.org/2000/svg">
<g clip-path="url(#clip0)">
<path d="M68.8528 12.2843L12.2843 68.8528C-3.3367 84.4738 -3.3367 109.8 12.2843 125.421L68.8528 181.99C84.4738 197.611 109.8 197.611 125.421 181.99L181.99 125.421C197.611 109.8 197.611 84.4738 181.99 68.8528L125.421 12.2843C109.8 -3.3367 84.4738 -3.3367 68.8528 12.2843Z" fill="#FCE55A" fill-opacity="0.6"/>
<path fill-rule="evenodd" clip-rule="evenodd" d="M85.4373 78H108.466C113.76 78 118.141 81.9101 118.878 87H121.903C121.147 80.2485 115.419 75 108.466 75H85.4373C78.4839 75 72.7563 80.2485 72 87H75.0246C75.7621 81.9101 80.1431 78 85.4373 78Z" fill="#353031"/>
<path fill-rule="evenodd" clip-rule="evenodd" d="M85.4373 78H108.466C113.76 78 118.141 81.9101 118.878 87H121.903C121.147 80.2485 115.419 75 108.466 75H85.4373C78.4839 75 72.7563 80.2485 72 87H75.0246C75.7621 81.9101 80.1431 78 85.4373 78Z" fill="#353031"/>
<path d="M97.8481 86.3573C97.2623 85.7715 96.3125 85.7715 95.7268 86.3573L86.1808 95.9033C85.595 96.4891 85.595 97.4388 86.1808 98.0246C86.7666 98.6104 87.7163 98.6104 88.3021 98.0246L96.7874 89.5393L105.273 98.0246C105.859 98.6104 106.808 98.6104 107.394 98.0246C107.98 97.4388 107.98 96.4891 107.394 95.9033L97.8481 86.3573ZM98.2874 118.877V87.418H95.2874V118.877H98.2874Z" fill="#353031"/>
</g>
<defs>
<clipPath id="clip0">
<rect width="194" height="194" fill="white"/>
</clipPath>
</defs>
</svg>
