<svg width="60" height="60" viewBox="0 0 60 60" fill="none" xmlns="http://www.w3.org/2000/svg">
<path d="M30 60C46.5685 60 60 46.5685 60 30C60 13.4315 46.5685 0 30 0C13.4315 0 0 13.4315 0 30C0 46.5685 13.4315 60 30 60Z" fill="#FCE55A" fill-opacity="0.6"/>
<path d="M24.963 50V31.2308H20V24.473H24.963V18.701C24.963 14.1653 27.8946 10 34.6497 10C37.3848 10 39.4072 10.2622 39.4072 10.2622L39.2478 16.5728C39.2478 16.5728 37.1853 16.5528 34.9345 16.5528C32.4985 16.5528 32.1082 17.6754 32.1082 19.5386V24.473H39.4415L39.1224 31.2308H32.1082V50H24.963Z" fill="#353031"/>
</svg>
