<svg width="60" height="60" viewBox="0 0 60 60" fill="none" xmlns="http://www.w3.org/2000/svg">
<path d="M30 60C46.5685 60 60 46.5685 60 30C60 13.4315 46.5685 0 30 0C13.4315 0 0 13.4315 0 30C0 46.5685 13.4315 60 30 60Z" fill="#FCE55A" fill-opacity="0.6"/>
<path d="M46.6879 27.198H30.346V33.9147H39.6817C39.2791 36.0858 38.0579 37.9222 36.217 39.1525C34.661 40.1928 32.6754 40.8079 30.3415 40.8079C25.8229 40.8079 22.0009 37.7548 20.635 33.6524C20.2912 32.6121 20.0922 31.4994 20.0922 30.3551C20.0922 29.2107 20.2912 28.098 20.635 27.0577C22.0055 22.9598 25.8275 19.9067 30.346 19.9067C32.8925 19.9067 35.1767 20.7842 36.9769 22.503L41.9522 17.5231C38.9444 14.7188 35.0229 13 30.346 13C23.5659 13 17.6995 16.8899 14.8454 22.5618C13.6694 24.9047 13 27.5553 13 30.3596C13 33.1639 13.6694 35.8099 14.8454 38.1529C17.6995 43.8248 23.5659 47.7146 30.346 47.7146C35.0319 47.7146 38.958 46.1587 41.8256 43.5082C45.1048 40.4868 47 36.0361 47 30.7486C47 29.5183 46.8914 28.3378 46.6879 27.198Z" fill="#353031"/>
</svg>
