<svg width="146" height="146" viewBox="0 0 146 146" fill="none" xmlns="http://www.w3.org/2000/svg">
<circle cx="28.2153" cy="43.4307" r="5" transform="rotate(-30 28.2153 43.4307)" fill="white"/>
<circle cx="7.43071" cy="55.4307" r="5" transform="rotate(-30 7.43071 55.4307)" fill="white"/>
<circle cx="48.9999" cy="31.4307" r="5" transform="rotate(-30 48.9999 31.4307)" fill="white"/>
<circle cx="69.7845" cy="19.4307" r="5" transform="rotate(-30 69.7845 19.4307)" fill="white"/>
<circle cx="90.5691" cy="7.43071" r="5" transform="rotate(-30 90.5691 7.43071)" fill="white"/>
<circle cx="102.569" cy="28.2154" r="5" transform="rotate(-30 102.569 28.2154)" fill="white"/>
<circle cx="114.569" cy="49" r="5" transform="rotate(-30 114.569 49)" fill="white"/>
<circle cx="126.569" cy="69.7847" r="5" transform="rotate(-30 126.569 69.7847)" fill="white"/>
<circle cx="138.569" cy="90.5694" r="5" transform="rotate(-30 138.569 90.5694)" fill="white"/>
<circle cx="81.7845" cy="40.2154" r="5" transform="rotate(-30 81.7845 40.2154)" fill="white"/>
<circle cx="93.7845" cy="61" r="5" transform="rotate(-30 93.7845 61)" fill="white"/>
<circle cx="105.785" cy="81.7847" r="5" transform="rotate(-30 105.785 81.7847)" fill="white"/>
<circle cx="117.785" cy="102.569" r="5" transform="rotate(-30 117.785 102.569)" fill="white"/>
<circle cx="60.9999" cy="52.2154" r="5" transform="rotate(-30 60.9999 52.2154)" fill="white"/>
<circle cx="72.9999" cy="73" r="5" transform="rotate(-30 72.9999 73)" fill="white"/>
<circle cx="84.9999" cy="93.7847" r="5" transform="rotate(-30 84.9999 93.7847)" fill="white"/>
<circle cx="96.9999" cy="114.569" r="5" transform="rotate(-30 96.9999 114.569)" fill="white"/>
<circle cx="40.2153" cy="64.2154" r="5" transform="rotate(-30 40.2153 64.2154)" fill="white"/>
<circle cx="19.4307" cy="76.2154" r="5" transform="rotate(-30 19.4307 76.2154)" fill="white"/>
<circle cx="52.2153" cy="85" r="5" transform="rotate(-30 52.2153 85)" fill="white"/>
<circle cx="31.4307" cy="97" r="5" transform="rotate(-30 31.4307 97)" fill="white"/>
<circle cx="64.2153" cy="105.785" r="5" transform="rotate(-30 64.2153 105.785)" fill="white"/>
<circle cx="76.2153" cy="126.569" r="5" transform="rotate(-30 76.2153 126.569)" fill="white"/>
<circle cx="43.4307" cy="117.785" r="5" transform="rotate(-30 43.4307 117.785)" fill="white"/>
<circle cx="55.4307" cy="138.569" r="5" transform="rotate(-30 55.4307 138.569)" fill="white"/>
</svg>
