<svg width="106" height="106" viewBox="0 0 106 106" fill="none" xmlns="http://www.w3.org/2000/svg">
<circle cx="29" cy="5" r="5" fill="white"/>
<circle cx="5" cy="5" r="5" fill="white"/>
<circle cx="53" cy="5" r="5" fill="white"/>
<circle cx="77" cy="5" r="5" fill="white"/>
<circle cx="101" cy="5" r="5" fill="white"/>
<circle cx="101" cy="29" r="5" fill="white"/>
<circle cx="101" cy="53" r="5" fill="white"/>
<circle cx="101" cy="77" r="5" fill="white"/>
<circle cx="101" cy="101" r="5" fill="white"/>
<circle cx="77" cy="29" r="5" fill="white"/>
<circle cx="77" cy="53" r="5" fill="white"/>
<circle cx="77" cy="77" r="5" fill="white"/>
<circle cx="77" cy="101" r="5" fill="white"/>
<circle cx="53" cy="29" r="5" fill="white"/>
<circle cx="53" cy="53" r="5" fill="white"/>
<circle cx="53" cy="77" r="5" fill="white"/>
<circle cx="53" cy="101" r="5" fill="white"/>
<circle cx="29" cy="29" r="5" fill="white"/>
<circle cx="5" cy="29" r="5" fill="white"/>
<circle cx="29" cy="53" r="5" fill="white"/>
<circle cx="5" cy="53" r="5" fill="white"/>
<circle cx="29" cy="77" r="5" fill="white"/>
<circle cx="29" cy="101" r="5" fill="white"/>
<circle cx="5" cy="77" r="5" fill="white"/>
<circle cx="5" cy="101" r="5" fill="white"/>
</svg>
