<svg width="194" height="194" viewBox="0 0 194 194" fill="none" xmlns="http://www.w3.org/2000/svg">
<g clip-path="url(#clip0)">
<path d="M68.8528 12.2843L12.2843 68.8528C-3.3367 84.4738 -3.3367 109.8 12.2843 125.421L68.8528 181.99C84.4738 197.611 109.8 197.611 125.421 181.99L181.99 125.421C197.611 109.8 197.611 84.4738 181.99 68.8528L125.421 12.2843C109.8 -3.33668 84.4738 -3.33668 68.8528 12.2843Z" fill="#FCE55A" fill-opacity="0.6"/>
<g clip-path="url(#clip1)">
<path d="M104.915 108.483C104.915 108.898 104.75 109.297 104.456 109.591C104.162 109.885 103.764 110.05 103.348 110.05H81.4044C81.0596 110.05 80.7304 110.363 80.4483 110.567L75.1348 114.752V89.6739C75.1348 89.2582 75.2999 88.8595 75.5939 88.5656C75.8878 88.2716 76.2865 88.1065 76.7022 88.1065H82.7523V84.9717H76.7022C75.4551 84.9717 74.2591 85.4671 73.3772 86.3489C72.4954 87.2308 72 88.4268 72 89.6739V117.887C72.0023 118.178 72.0857 118.463 72.2407 118.709C72.3957 118.956 72.6163 119.154 72.8777 119.282C73.1296 119.397 73.4073 119.442 73.6826 119.415C73.9579 119.387 74.221 119.287 74.4451 119.125L82.5172 113.185H103.583C104.177 113.202 104.768 113.098 105.32 112.878C105.872 112.657 106.373 112.326 106.792 111.904C107.211 111.483 107.539 110.979 107.755 110.426C107.971 109.872 108.072 109.28 108.05 108.686V106.915H104.915V108.483Z" fill="#353031"/>
<path d="M117.455 74H90.8089C89.5618 74 88.3658 74.4954 87.4839 75.3772C86.6021 76.2591 86.1067 77.4551 86.1067 78.7022V97.511C86.1067 98.7581 86.6021 99.9541 87.4839 100.836C88.3658 101.718 89.5618 102.213 90.8089 102.213H112.047L119.539 108.028C119.762 108.193 120.024 108.296 120.3 108.326C120.575 108.356 120.853 108.313 121.107 108.201C121.373 108.074 121.599 107.874 121.757 107.624C121.915 107.375 121.999 107.085 122 106.79V78.7022C122.001 77.4818 121.527 76.3089 120.679 75.4315C119.83 74.554 118.674 74.0407 117.455 74ZM119.022 103.687L113.536 99.4075C113.263 99.1952 112.926 99.0794 112.58 99.0784H90.8089C90.3932 99.0784 89.9945 98.9132 89.7006 98.6193C89.4066 98.3253 89.2415 97.9267 89.2415 97.511V78.7022C89.2415 78.2865 89.4066 77.8878 89.7006 77.5939C89.9945 77.2999 90.3932 77.1348 90.8089 77.1348H117.455C117.874 77.1728 118.264 77.3627 118.553 77.6687C118.842 77.9748 119.008 78.3758 119.022 78.7962V103.687Z" fill="#353031"/>
</g>
</g>
<defs>
<clipPath id="clip0">
<rect width="194" height="194" fill="white"/>
</clipPath>
<clipPath id="clip1">
<rect width="50" height="46" fill="white" transform="translate(72 74)"/>
</clipPath>
</defs>
</svg>
