<svg width="66" height="70" viewBox="0 0 66 70" fill="none" xmlns="http://www.w3.org/2000/svg">
<path d="M0 14.1885C0 12.5316 1.34315 11.1885 3 11.1885H62.9834C64.6403 11.1885 65.9834 12.5316 65.9834 14.1885V55.5654C65.9834 62.7451 60.1631 68.5654 52.9834 68.5654H13C5.82031 68.5654 0 62.7451 0 55.5654V20.5122V14.1885Z" fill="#EAD036"/>
<path d="M30.8213 0C31.3735 0 31.8213 0.447715 31.8213 1V23.0983C31.8213 23.6506 31.3735 24.0983 30.8213 24.0983H28.3459C27.7936 24.0983 27.3459 23.6506 27.3459 23.0983V14.7705C27.3459 14.2182 26.8981 13.7705 26.3459 13.7705H15.8836C15.3313 13.7705 14.8836 14.2182 14.8836 14.7705V23.0983C14.8836 23.6506 14.4359 24.0983 13.8836 24.0983H11.4082C10.8559 24.0983 10.4082 23.6506 10.4082 23.0983V0.999998C10.4082 0.447714 10.8559 0 11.4082 0H13.8836C14.4359 0 14.8836 0.447715 14.8836 1V8.94916C14.8836 9.50144 15.3313 9.94916 15.8836 9.94916H26.3459C26.8981 9.94916 27.3459 9.50144 27.3459 8.94916V1C27.3459 0.447715 27.7936 0 28.3459 0H30.8213Z" fill="black"/>
<path d="M51.8134 24.0983C51.4865 24.0983 51.1802 23.9385 50.9932 23.6704L46.7087 17.5283C46.4992 17.2279 46.1418 17.0654 45.7756 17.0724C45.6723 17.0744 45.5602 17.0754 45.4392 17.0754H40.9999C40.4476 17.0754 39.9999 17.5231 39.9999 18.0754V23.0983C39.9999 23.6506 39.5522 24.0983 38.9999 24.0983H36.5245C35.9722 24.0983 35.5245 23.6506 35.5245 23.0983V0.999998C35.5245 0.447714 35.9722 0 36.5245 0H45.4392C47.5277 0 49.3409 0.344262 50.8786 1.03279C52.4392 1.72131 53.6326 2.70819 54.4589 3.99343C55.2851 5.27868 55.6982 6.8049 55.6982 8.57211C55.6982 10.3852 55.2507 11.9459 54.3556 13.2541C53.6991 14.2388 52.8215 15.035 51.7227 15.6427C51.1553 15.9565 50.9275 16.6928 51.2993 17.224L55.0099 22.5248C55.4738 23.1876 54.9997 24.0983 54.1907 24.0983H51.8134ZM51.1884 8.57211C51.1884 7.03441 50.6835 5.85245 49.6736 5.02622C48.6638 4.19999 47.1835 3.78688 45.2327 3.78688H40.9999C40.4476 3.78688 39.9999 4.23459 39.9999 4.78688V12.3918C39.9999 12.9441 40.4476 13.3918 40.9999 13.3918H45.2327C47.1835 13.3918 48.6638 12.9787 49.6736 12.1524C50.6835 11.3033 51.1884 10.1098 51.1884 8.57211Z" fill="black"/>
<path d="M0 24.2295C0 22.5726 1.34315 21.2295 3 21.2295H62.9834C64.6403 21.2295 65.9834 22.5726 65.9834 24.2295V56.9999C65.9834 64.1796 60.1631 69.9999 52.9834 69.9999H13C5.82031 69.9999 0 64.1796 0 56.9999V24.2295Z" fill="#FCE55A"/>
<path d="M2.42077 59.1071C1.99266 58.0747 1.69375 56.9752 1.54421 55.8287L2.04001 55.7641C1.97031 55.2297 1.93433 54.6846 1.93433 54.1308V52.7792H1.43433V50.0759H1.93433V47.3727H1.43433V44.6694H1.93433V41.9661H1.43433V39.2628H1.93433V36.5596H1.43433V33.8563H1.93433V31.153H1.43433V28.4498H1.93433V27.0981C1.93433 26.7582 2.00188 26.4354 2.12383 26.1413L1.66197 25.9498C1.96606 25.2165 2.55264 24.6299 3.28596 24.3258L3.47749 24.7876C3.77156 24.6657 4.09443 24.5981 4.43433 24.5981H5.981V24.0981H9.07435V24.5981H12.1677V24.0981H15.261V24.5981H18.3544V24.0981H21.4477V24.5981H24.5411V24.0981H27.6344V24.5981H30.7277V24.0981H33.8211V24.5981H36.9144V24.0981H40.0078V24.5981H43.1011V24.0981H46.1944V24.5981H49.2878V24.0981H52.3811V24.5981H55.4745V24.0981H58.5678V24.5981H60.1145C60.4544 24.5981 60.7773 24.6657 61.0713 24.7876L61.2629 24.3258C61.9962 24.6299 62.5828 25.2165 62.8868 25.9498L62.425 26.1413C62.5469 26.4354 62.6145 26.7582 62.6145 27.0981V28.4498H63.1145V31.153H62.6145V33.8563H63.1145V36.5596H62.6145V39.2629H63.1145V41.9661H62.6145V44.6694H63.1145V47.3727H62.6145V50.0759H63.1145V52.7792H62.6145V54.1308C62.6145 54.6846 62.5785 55.2298 62.5088 55.7641L63.0046 55.8288C62.8551 56.9752 62.5562 58.0747 62.128 59.1071L61.6662 58.9155C61.2449 59.9315 60.6933 60.8801 60.0322 61.7404L60.4287 62.045C59.7366 62.9456 58.9293 63.753 58.0287 64.445L57.724 64.0486C56.8637 64.7097 55.9152 65.2612 54.8992 65.6825L55.0907 66.1444C54.0583 66.5725 52.9589 66.8714 51.8124 67.0209L51.7477 66.5251C51.2134 66.5948 50.6683 66.6308 50.1145 66.6308H48.6278V67.1308H45.6545V66.6308H42.6811V67.1308H39.7078V66.6308H36.7344V67.1308H33.7611V66.6308H30.7877V67.1308H27.8144V66.6308H24.841V67.1308H21.8677V66.6308H18.8943V67.1308H15.921V66.6308H14.4343C13.8805 66.6308 13.3354 66.5948 12.8011 66.5251L12.7364 67.0209C11.59 66.8714 10.4905 66.5725 9.45808 66.1444L9.64961 65.6825C8.63366 65.2612 7.6851 64.7097 6.82479 64.0486L6.52013 64.445C5.61955 63.753 4.81219 62.9456 4.12013 62.045L4.51659 61.7403C3.85548 60.88 3.30393 59.9315 2.88264 58.9155L2.42077 59.1071Z" stroke="#EAD036" stroke-dasharray="3 3"/>
</svg>
