<svg width="194" height="194" viewBox="0 0 194 194" fill="none" xmlns="http://www.w3.org/2000/svg">
<g clip-path="url(#clip0)">
<path d="M68.8528 12.2843L12.2843 68.8528C-3.3367 84.4738 -3.3367 109.8 12.2843 125.421L68.8528 181.99C84.4738 197.611 109.8 197.611 125.421 181.99L181.99 125.421C197.611 109.8 197.611 84.4738 181.99 68.8528L125.421 12.2843C109.8 -3.33668 84.4738 -3.33668 68.8528 12.2843Z" fill="#FCE55A" fill-opacity="0.6"/>
<g filter="url(#filter0_d)">
<path d="M74.6154 81H74C72.8954 81 72 81.8954 72 83V83.6154C72 84.7199 72.8954 85.6154 74 85.6154H74.6154C75.7199 85.6154 76.6154 84.7199 76.6154 83.6154V83C76.6154 81.8954 75.7199 81 74.6154 81Z" fill="#353031"/>
<path d="M120.846 82.5385H83.1538C82.5166 82.5385 82 83.055 82 83.6923C82 84.3295 82.5166 84.8461 83.1538 84.8461H120.846C121.483 84.8461 122 84.3295 122 83.6923C122 83.055 121.483 82.5385 120.846 82.5385Z" fill="#353031"/>
<path d="M120.846 91.7692H83.1538C82.5166 91.7692 82 92.2858 82 92.923C82 93.5603 82.5166 94.0769 83.1538 94.0769H120.846C121.483 94.0769 122 93.5603 122 92.923C122 92.2858 121.483 91.7692 120.846 91.7692Z" fill="#353031"/>
<path d="M74.6154 90.2307H74C72.8954 90.2307 72 91.1261 72 92.2307V92.8461C72 93.9507 72.8954 94.8461 74 94.8461H74.6154C75.7199 94.8461 76.6154 93.9507 76.6154 92.8461V92.2307C76.6154 91.1261 75.7199 90.2307 74.6154 90.2307Z" fill="#353031"/>
<path d="M120.846 101H83.1538C82.5166 101 82 101.517 82 102.154C82 102.791 82.5166 103.308 83.1538 103.308H120.846C121.483 103.308 122 102.791 122 102.154C122 101.517 121.483 101 120.846 101Z" fill="#353031"/>
<path d="M74.6154 99.4615H74C72.8954 99.4615 72 100.357 72 101.462V102.077C72 103.181 72.8954 104.077 74 104.077H74.6154C75.7199 104.077 76.6154 103.181 76.6154 102.077V101.462C76.6154 100.357 75.7199 99.4615 74.6154 99.4615Z" fill="#353031"/>
</g>
</g>
<defs>
<filter id="filter0_d" x="68" y="81" width="58" height="31.0769" filterUnits="userSpaceOnUse" color-interpolation-filters="sRGB">
<feFlood flood-opacity="0" result="BackgroundImageFix"/>
<feColorMatrix in="SourceAlpha" type="matrix" values="0 0 0 0 0 0 0 0 0 0 0 0 0 0 0 0 0 0 127 0"/>
<feOffset dy="4"/>
<feGaussianBlur stdDeviation="2"/>
<feColorMatrix type="matrix" values="0 0 0 0 0 0 0 0 0 0 0 0 0 0 0 0 0 0 0.25 0"/>
<feBlend mode="normal" in2="BackgroundImageFix" result="effect1_dropShadow"/>
<feBlend mode="normal" in="SourceGraphic" in2="effect1_dropShadow" result="shape"/>
</filter>
<clipPath id="clip0">
<rect width="194" height="194" fill="white"/>
</clipPath>
</defs>
</svg>
