<svg width="32" height="35" viewBox="0 0 32 35" fill="none" xmlns="http://www.w3.org/2000/svg">
<path d="M28 20.2755V14C28 8.37025 24.1763 3.62775 18.9963 2.2015C18.4835 0.91 17.2305 0 15.75 0C14.2695 0 13.0165 0.91 12.5038 2.2015C7.32376 3.6295 3.50001 8.37025 3.50001 14V20.2755L0.512762 23.2627C0.349937 23.425 0.220809 23.6178 0.13281 23.8302C0.0448103 24.0425 -0.000321443 24.2701 1.19259e-05 24.5V28C1.19259e-05 28.4641 0.184386 28.9092 0.512575 29.2374C0.840764 29.5656 1.28588 29.75 1.75001 29.75H29.75C30.2141 29.75 30.6593 29.5656 30.9874 29.2374C31.3156 28.9092 31.5 28.4641 31.5 28V24.5C31.5003 24.2701 31.4552 24.0425 31.3672 23.8302C31.2792 23.6178 31.1501 23.425 30.9873 23.2627L28 20.2755ZM28.5833 26.8333H15.75H2.91667V25.8078L5.83334 22.0412C5.99617 21.879 6.1253 21.6862 6.2133 21.4738C6.3013 21.2615 6.34643 21.0338 6.34609 20.804V14C6.34609 9.17525 10.9253 4.66667 15.75 4.66667C20.5747 4.66667 25.0833 9.17525 25.0833 14L25.1539 20.9294C25.1539 21.3949 25.3377 21.8394 25.6667 22.1667L28.5833 25.8078V26.8333ZM15.75 35C16.8338 35.0014 17.8911 34.665 18.7749 34.0378C19.6587 33.4105 20.3251 32.5235 20.6815 31.5H10.8185C11.1749 32.5235 11.8413 33.4105 12.7252 34.0378C13.609 34.665 14.6662 35.0014 15.75 35Z" fill="#353031"/>
</svg>
