<svg width="633" height="747" viewBox="0 0 633 747" fill="none" xmlns="http://www.w3.org/2000/svg">
<path d="M16.9561 159.799C6.70439 120.43 21.3244 78.7749 53.9316 54.4482L100.309 19.8483C117.582 6.96177 138.556 0 160.106 0H633V630.936L265.976 722.914C212.752 736.252 158.722 704.212 144.895 651.113L16.9561 159.799Z" fill="#FCE55A"/>
<circle cx="84.2154" cy="160.431" r="5" transform="rotate(-30 84.2154 160.431)" fill="white"/>
<circle cx="63.4307" cy="172.431" r="5" transform="rotate(-30 63.4307 172.431)" fill="white"/>
<circle cx="105" cy="148.431" r="5" transform="rotate(-30 105 148.431)" fill="white"/>
<circle cx="125.785" cy="136.431" r="5" transform="rotate(-30 125.785 136.431)" fill="white"/>
<circle cx="146.569" cy="124.431" r="5" transform="rotate(-30 146.569 124.431)" fill="white"/>
<circle cx="158.569" cy="145.215" r="5" transform="rotate(-30 158.569 145.215)" fill="white"/>
<circle cx="170.569" cy="166" r="5" transform="rotate(-30 170.569 166)" fill="white"/>
<circle cx="182.569" cy="186.784" r="5" transform="rotate(-30 182.569 186.784)" fill="white"/>
<circle cx="194.569" cy="207.569" r="5" transform="rotate(-30 194.569 207.569)" fill="white"/>
<circle cx="137.785" cy="157.215" r="5" transform="rotate(-30 137.785 157.215)" fill="white"/>
<circle cx="149.785" cy="178" r="5" transform="rotate(-30 149.785 178)" fill="white"/>
<circle cx="161.785" cy="198.784" r="5" transform="rotate(-30 161.785 198.784)" fill="white"/>
<circle cx="173.785" cy="219.569" r="5" transform="rotate(-30 173.785 219.569)" fill="white"/>
<circle cx="117" cy="169.215" r="5" transform="rotate(-30 117 169.215)" fill="white"/>
<circle cx="129" cy="190" r="5" transform="rotate(-30 129 190)" fill="white"/>
<circle cx="141" cy="210.784" r="5" transform="rotate(-30 141 210.784)" fill="white"/>
<circle cx="153" cy="231.569" r="5" transform="rotate(-30 153 231.569)" fill="white"/>
<circle cx="96.2154" cy="181.215" r="5" transform="rotate(-30 96.2154 181.215)" fill="white"/>
<circle cx="75.4307" cy="193.215" r="5" transform="rotate(-30 75.4307 193.215)" fill="white"/>
<circle cx="108.215" cy="202" r="5" transform="rotate(-30 108.215 202)" fill="white"/>
<circle cx="87.4307" cy="214" r="5" transform="rotate(-30 87.4307 214)" fill="white"/>
<circle cx="120.215" cy="222.784" r="5" transform="rotate(-30 120.215 222.784)" fill="white"/>
<circle cx="132.215" cy="243.569" r="5" transform="rotate(-30 132.215 243.569)" fill="white"/>
<circle cx="99.4307" cy="234.784" r="5" transform="rotate(-30 99.4307 234.784)" fill="white"/>
<circle cx="111.431" cy="255.569" r="5" transform="rotate(-30 111.431 255.569)" fill="white"/>
<path d="M501.01 334.556C499.038 320.72 507.216 307.445 520.461 302.982L596.741 277.282C615.536 270.95 635 284.931 635 304.764V473.525C635 486.855 625.912 498.469 612.973 501.674L558.988 515.046C542.316 519.176 525.729 507.992 523.305 490.989L501.01 334.556Z" stroke="white" stroke-width="2"/>
<path d="M519.51 388.556C517.538 374.72 525.716 361.445 538.961 356.982L615.241 331.282C634.036 324.95 653.5 338.931 653.5 358.764V527.525C653.5 540.855 644.412 552.469 631.473 555.674L577.488 569.046C560.816 573.176 544.229 561.992 541.805 544.989L519.51 388.556Z" stroke="white" stroke-width="2"/>
<path d="M538.51 442.556C536.538 428.72 544.716 415.445 557.961 410.982L634.241 385.282C653.036 378.95 672.5 392.931 672.5 412.764V581.525C672.5 594.855 663.412 606.469 650.473 609.674L596.488 623.046C579.816 627.176 563.229 615.992 560.805 598.989L538.51 442.556Z" stroke="white" stroke-width="2"/>
</svg>
